<?xml version="1.0" standalone="no"?>
<!DOCTYPE svg PUBLIC "-//W3C//DTD SVG 20010904//EN"
 "http://www.w3.org/TR/2001/REC-SVG-20010904/DTD/svg10.dtd">
<svg version="1.0" xmlns="http://www.w3.org/2000/svg"
 width="626.000000pt" height="417.000000pt" viewBox="0 0 626.000000 417.000000"
 preserveAspectRatio="xMidYMid meet">

<g transform="translate(0.000000,417.000000) scale(0.100000,-0.100000)"
fill="#000000" stroke="none">
<path d="M0 2085 l0 -2085 3130 0 3130 0 0 2085 0 2085 -3130 0 -3130 0 0
-2085z m270 1904 c0 -25 -33 -22 -38 4 -2 12 3 17 17 17 15 0 21 -6 21 -21z
m88 4 c5 -17 -26 -29 -40 -15 -6 6 -7 15 -3 22 9 14 37 9 43 -7z m-91 -89 c8
-21 -13 -42 -28 -27 -13 13 -5 43 11 43 6 0 13 -7 17 -16z m90 0 c8 -20 -17
-36 -34 -22 -10 8 -10 14 -2 24 15 18 28 18 36 -2z m-87 -104 c0 -11 -6 -20
-14 -20 -18 0 -29 16 -21 30 11 18 35 11 35 -10z m88 3 c5 -17 -26 -29 -40
-15 -6 6 -7 15 -3 22 9 14 37 9 43 -7z m-6 -115 c-17 -17 -47 9 -30 29 10 12
13 12 27 -1 11 -12 12 -19 3 -28z m-84 15 c-2 -10 -10 -18 -18 -18 -8 0 -16 8
-18 18 -2 12 3 17 18 17 15 0 20 -5 18 -17z m2493 -32 c-13 -24 -52 -34 -85
-21 -37 14 -32 17 19 15 28 -1 49 3 56 11 16 20 21 17 10 -5z m-2493 -64 c2
-12 -3 -17 -17 -17 -12 0 -21 6 -21 13 0 31 32 34 38 4z m88 12 c9 -15 -11
-33 -30 -26 -9 4 -13 13 -10 22 7 17 30 20 40 4z m-88 -106 c-2 -10 -10 -18
-18 -18 -8 0 -16 8 -18 18 -2 12 3 17 18 17 15 0 20 -5 18 -17z m90 0 c5 -18
-28 -29 -38 -12 -5 7 -6 17 -3 22 7 12 35 5 41 -10z m-91 -89 c8 -21 -13 -42
-28 -27 -13 13 -5 43 11 43 6 0 13 -7 17 -16z m82 -20 c-9 -11 -15 -12 -25 -3
-11 9 -12 15 -3 25 9 11 15 12 25 3 11 -9 12 -15 3 -25z m4972 -2054 l24 -20
-63 2 c-60 1 -61 2 -46 20 22 24 56 23 85 -2z m699 -570 c0 -11 -6 -20 -14
-20 -18 0 -29 16 -21 30 11 18 35 11 35 -10z m85 0 c0 -8 -8 -16 -17 -18 -13
-2 -18 3 -18 18 0 15 5 20 18 18 9 -2 17 -10 17 -18z m-88 -104 c-4 -9 -11
-16 -17 -16 -17 0 -24 31 -9 41 18 11 34 -5 26 -25z m93 9 c0 -21 -19 -28 -36
-15 -10 9 -11 16 -3 26 12 15 39 8 39 -11z m-90 -95 c0 -11 -6 -20 -14 -20
-18 0 -29 16 -21 30 11 18 35 11 35 -10z m85 0 c0 -8 -8 -16 -17 -18 -13 -2
-18 3 -18 18 0 15 5 20 18 18 9 -2 17 -10 17 -18z m-87 -97 c-2 -10 -10 -18
-18 -18 -8 0 -16 8 -18 18 -2 12 3 17 18 17 15 0 20 -5 18 -17z m87 -3 c0 -22
-29 -18 -33 3 -3 14 1 18 15 15 10 -2 18 -10 18 -18z m-2207 -67 c12 -10 22
-29 24 -43 3 -25 2 -25 -67 -24 -79 1 -90 12 -55 57 25 32 67 36 98 10z m2120
-26 c2 -12 -3 -17 -17 -17 -12 0 -21 6 -21 13 0 31 32 34 38 4z m87 2 c0 -7
-8 -15 -17 -17 -18 -3 -25 18 -11 32 10 10 28 1 28 -15z m-85 -99 c0 -11 -6
-20 -14 -20 -18 0 -29 16 -21 30 11 18 35 11 35 -10z m85 0 c0 -8 -8 -16 -17
-18 -13 -2 -18 3 -18 18 0 15 5 20 18 18 9 -2 17 -10 17 -18z m-88 -86 c8 -21
-13 -42 -28 -27 -13 13 -5 43 11 43 6 0 13 -7 17 -16z m90 0 c9 -23 -13 -40
-32 -24 -12 10 -13 16 -4 26 15 18 28 18 36 -2z"/>
</g>
</svg>
